<?xml version="1.0" encoding="UTF-8"?> <svg xmlns="http://www.w3.org/2000/svg" xmlns:xlink="http://www.w3.org/1999/xlink" viewBox="0 0 488.04 493.19"><defs><style>.cls-1,.cls-24,.cls-25,.cls-4,.cls-41,.cls-43,.cls-45{fill:none;}.cls-1,.cls-25{stroke:#e1e9f2;}.cls-1,.cls-25,.cls-43,.cls-45{stroke-linecap:round;stroke-linejoin:round;}.cls-1,.cls-41,.cls-43,.cls-45{stroke-width:2px;}.cls-2{fill:#eef0f3;}.cls-3{fill:#fff;}.cls-4{stroke:#e1e7ef;stroke-width:0.75px;}.cls-24,.cls-4,.cls-41{stroke-miterlimit:10;}.cls-5,.cls-7,.cls-8{fill:#05c2f0;}.cls-5,.cls-6{fill-rule:evenodd;}.cls-6{fill:#3816db;}.cls-8{font-size:11.56px;}.cls-15,.cls-20,.cls-21,.cls-8,.cls-9{font-family:ArialMT, Arial;}.cls-9{font-size:4.95px;}.cls-12,.cls-13,.cls-14,.cls-15,.cls-20,.cls-21,.cls-26,.cls-31,.cls-9{fill:#c0cdde;}.cls-10,.cls-11,.cls-12,.cls-13,.cls-14,.cls-26{font-family:Arial-BoldMT, Arial;font-weight:700;}.cls-10{letter-spacing:0em;}.cls-12,.cls-21{font-size:6.2px;}.cls-13,.cls-20{font-size:5.78px;}.cls-14,.cls-15{font-size:5.37px;}.cls-16{letter-spacing:-0.11em;}.cls-17{letter-spacing:-0.02em;}.cls-18{letter-spacing:-0.07em;}.cls-19{letter-spacing:0em;}.cls-22{letter-spacing:-0.04em;}.cls-23{letter-spacing:-0.04em;}.cls-24{stroke:#05c2f0;}.cls-24,.cls-25{stroke-width:0.5px;}.cls-26{font-size:5.15px;}.cls-27{fill:#68c96f;}.cls-28{fill:#0058a0;}.cls-29{fill:#faa300;}.cls-30{fill:#fe9900;}.cls-32{fill:#ff4d66;}.cls-33{fill:#2f00d3;}.cls-34{fill:#5450ff;}.cls-35{fill:#19365b;}.cls-36{fill:#e1e9f2;}.cls-37{fill:#83e1f9;}.cls-38{fill:url(#linear-gradient);}.cls-39{fill:url(#linear-gradient-2);}.cls-40{fill:#dce3ea;}.cls-41{stroke:#dee8f2;}.cls-42{fill:#dee8f2;}.cls-43{stroke:#fd6081;}.cls-44{fill:#0d2748;}.cls-45{stroke:#212836;}</style><linearGradient id="linear-gradient" x1="218.61" y1="-71.57" x2="271.05" y2="-71.57" gradientTransform="translate(62.75 188.65) rotate(11.01)" gradientUnits="userSpaceOnUse"><stop offset="0" stop-color="#05c2f0"></stop><stop offset="1" stop-color="#00c"></stop></linearGradient><linearGradient id="linear-gradient-2" x1="64.54" y1="324.44" x2="165.7" y2="477.54" gradientUnits="userSpaceOnUse"><stop offset="0" stop-color="#fdc857"></stop><stop offset="1" stop-color="#fd4d66"></stop></linearGradient></defs><title>Asset 4</title><g id="Layer_2" data-name="Layer 2"><g id="_04" data-name="04"><path class="cls-1" d="M456,280.4c-.23,1.3-.47,2.59-.73,3.88a220,220,0,0,1-216,177.19c-121.6,0-220.19-98.58-220.19-220.19"></path><path class="cls-1" d="M22.78,208.52C42,106.49,131.56,29.3,239.16,29.3c121.61,0,220.2,98.58,220.2,220.19"></path><path class="cls-1" d="M22.78,208.52C42,106.49,131.56,29.3,239.16,29.3c121.61,0,220.2,98.58,220.2,220.19"></path><ellipse class="cls-2" cx="423.26" cy="487.07" rx="64.78" ry="3.9"></ellipse><ellipse class="cls-2" cx="128.09" cy="487.9" rx="77.49" ry="5.3"></ellipse><polyline class="cls-1" points="477.41 232.03 459.36 250.08 441.3 232.03"></polyline><rect class="cls-3" x="78.48" y="59.19" width="312.25" height="384.91"></rect><rect class="cls-4" x="78.48" y="59.19" width="312.25" height="384.91"></rect><path class="cls-5" d="M132,106.55l-14.59,14.59a20.63,20.63,0,1,1,35.22-14.59Z"></path><path class="cls-6" d="M132,106.55h20.63a20.63,20.63,0,0,1-6,14.59Z"></path><path class="cls-5" d="M128.86,124.23h2.58v-2.59h-2.58v2.59Zm6.18,0h-2.59v-2.59H135v2.59Zm-6.18-6.18h2.58v2.59h-2.58v-2.59Zm6.18,0h-2.59v2.59H135Z"></path><path class="cls-7" d="M168.09,99.08v2a1.35,1.35,0,0,1-1.36,1.35h-3.44v-1.74h3V99.47h-1.69a1.35,1.35,0,0,1-1.35-1.36v-2a1.36,1.36,0,0,1,1.35-1.36h3.45v1.75H165v1.19h1.7A1.36,1.36,0,0,1,168.09,99.08Z"></path><path class="cls-7" d="M173.29,94.78H175v7.62h-1.75V99.46h-1.9v2.94h-1.74V94.78h1.74v2.94h1.9Z"></path><path class="cls-7" d="M178.34,102.4H176.6V94.78h1.74Z"></path><path class="cls-7" d="M185.29,94.78v7.62h-1.74l-1.9-4v4h-1.74V94.78h1.74l1.9,4v-4Z"></path><path class="cls-7" d="M188.6,96.53v4.13h1.9v-1.2h-1V97.72h2.7V101a1.36,1.36,0,0,1-1.36,1.36H188.2a1.35,1.35,0,0,1-1.35-1.36v-4.9a1.35,1.35,0,0,1,1.35-1.36h4v1.75Z"></path><path class="cls-7" d="M195.54,100.66h2.81v1.74H193.8V94.78h1.74Z"></path><path class="cls-7" d="M201.66,96.53v1.19h2.18v1.74h-2.18v1.2h3v1.74h-4.78V94.78h4.78v1.75Z"></path><path class="cls-7" d="M168.09,112.13v2a1.35,1.35,0,0,1-1.36,1.35h-3.44v-1.74h3v-1.19h-1.69a1.35,1.35,0,0,1-1.35-1.36v-2a1.36,1.36,0,0,1,1.35-1.36h3.45v1.75H165v1.19h1.7A1.36,1.36,0,0,1,168.09,112.13Z"></path><path class="cls-7" d="M173.29,107.83H175v7.62h-1.75v-2.94h-1.9v2.94h-1.74v-7.62h1.74v2.94h1.9Z"></path><path class="cls-7" d="M182.1,115.45h-1.74l-.3-1.1h-1.88l-.31,1.1h-1.74l2.12-7.62H180Zm-2.53-2.87-.46-1.63-.44,1.63Z"></path><path class="cls-7" d="M188.73,112.84v1.25a1.36,1.36,0,0,1-1.36,1.36H184.7a1.36,1.36,0,0,1-1.36-1.36v-4.9a1.36,1.36,0,0,1,1.36-1.36h2.67a1.36,1.36,0,0,1,1.36,1.36v1.25H187v-.86h-1.91v4.13H187v-.87Z"></path><path class="cls-7" d="M193.83,110.54l1.95,4.91h-1.85l-1.26-3.16-.64,1v2.19h-1.74v-7.62H192v2.62l1.74-2.62h1.85Z"></path><text class="cls-8" transform="translate(111.32 218.01)">Invoice</text><text class="cls-9" transform="translate(173.45 217.67)">Invoice number: <tspan class="cls-10" x="36.61" y="0">1234</tspan></text><text class="cls-9" transform="translate(230.58 217.67)">Invoice date: <tspan class="cls-11" x="29.46" y="0">Nov 12, 2019</tspan></text><text class="cls-9" transform="translate(297.83 217.67)">Due date: <tspan class="cls-11" x="22.85" y="0">Nov 20, 2019</tspan></text><text class="cls-12" transform="translate(112.49 156.42)">David Price</text><text class="cls-13" transform="translate(111.79 230.32)">Description</text><text class="cls-14" transform="translate(112.03 241.14)">Deposit</text><text class="cls-15" transform="translate(250.34 262.57)"><tspan class="cls-16">T</tspan><tspan x="2.68" y="0">otal excluding</tspan><tspan class="cls-17" x="35.49" y="0"> </tspan><tspan class="cls-16" x="36.88" y="0">T</tspan><tspan x="39.57" y="0">ax</tspan></text><text class="cls-15" transform="translate(271.42 273.93)"><tspan class="cls-16">T</tspan><tspan x="2.68" y="0">ax (25%)</tspan></text><text class="cls-13" transform="translate(243.78 286.95)"><tspan class="cls-18">T</tspan><tspan x="3.1" y="0">otal including </tspan><tspan class="cls-18" x="42.26" y="0">T</tspan><tspan class="cls-19" x="45.36" y="0">ax</tspan></text><text class="cls-15" transform="translate(112.03 249.14)">20% of total</text><text class="cls-15" transform="translate(244.25 241.14)">1</text><text class="cls-15" transform="translate(283.33 241.14)">50.00</text><text class="cls-15" transform="translate(335.63 241.14)">20.00</text><text class="cls-15" transform="translate(332.7 262.57)">920.00</text><text class="cls-20" transform="translate(326.62 286.95)">1,070.00</text><text class="cls-15" transform="translate(332.7 273.93)">150.00</text><text class="cls-13" transform="translate(226.74 230.32)">Quantity</text><text class="cls-13" transform="translate(273.03 230.32)">Unit price</text><text class="cls-13" transform="translate(335.19 230.32)">Price</text><text class="cls-21" transform="translate(112.49 164.71)">4896 Scenic <tspan class="cls-22" x="35.84" y="0">W</tspan><tspan x="41.46" y="0">ay</tspan><tspan x="0" y="7.44">Springfield, I</tspan><tspan class="cls-23" x="34.45" y="7.44">L</tspan><tspan x="37.67" y="7.44" xml:space="preserve"> 62703</tspan></text><line class="cls-24" x1="112.02" y1="222.46" x2="349.12" y2="222.46"></line><line class="cls-24" x1="243.52" y1="279.16" x2="349.12" y2="279.16"></line><line class="cls-25" x1="112.02" y1="233.75" x2="349.12" y2="233.75"></line><line class="cls-25" x1="112.02" y1="253.33" x2="349.12" y2="253.33"></line><text class="cls-26" transform="translate(113.38 382.62)">Payment methods accepted</text><rect class="cls-27" x="111.79" y="388.1" width="69.73" height="10.07" rx="1.43"></rect><path class="cls-3" d="M116.73,391.6h.79c.64,0,1.07.21,1.07.84s-.42.88-1,.88h-.47v1.13h-.35Zm.78,1.42c.5,0,.74-.18.74-.58s-.26-.55-.75-.55h-.41V393Z"></path><path class="cls-3" d="M118.83,393.9c0-.46.4-.69,1.3-.79,0-.26-.09-.53-.44-.53a1.16,1.16,0,0,0-.63.23l-.13-.25a1.52,1.52,0,0,1,.83-.27c.51,0,.73.35.73.86v1.3h-.3l0-.25h0a1.09,1.09,0,0,1-.71.3.59.59,0,0,1-.62-.53Zm1.3,0v-.58c-.71.09-.95.26-.95.53s.17.35.38.35a.87.87,0,0,0,.57-.3Z"></path><path class="cls-3" d="M120.94,395.31,121,395l.16,0c.24,0,.39-.2.48-.46l0-.15-.85-2.12h.36l.43,1.17c.06.18.14.4.2.59h0l.18-.59.37-1.17h.36l-.8,2.28c-.14.42-.35.74-.79.74A.69.69,0,0,1,120.94,395.31Z"></path><path class="cls-3" d="M123.9,393.4a1,1,0,0,1,1.95.23,1,1,0,0,1-1,.87,1,1,0,0,1-1-1A.15.15,0,0,1,123.9,393.4Zm1.58,0c0-.49-.24-.82-.61-.82s-.6.33-.6.82.24.81.6.81.61-.33.61-.81Z"></path><path class="cls-3" d="M126.42,392.34h.29l0,.3h0a1,1,0,0,1,.71-.35c.44,0,.64.28.64.82v1.34h-.36v-1.29c0-.4-.12-.57-.4-.57s-.35.12-.58.33v1.53h-.35Z"></path><path class="cls-3" d="M128.79,394v-2.67h.35v2.69c0,.12.05.16.1.16h.08l.05.26a.52.52,0,0,1-.21,0C128.91,394.5,128.79,394.33,128.79,394Z"></path><path class="cls-3" d="M129.84,391.67a.22.22,0,0,1,.22-.23h0a.23.23,0,0,1,.24.23.24.24,0,0,1-.24.24.22.22,0,0,1-.23-.21Zm0,.67h.36v2.11h-.36Z"></path><path class="cls-3" d="M131,392.34h.3l0,.3h0a1,1,0,0,1,.71-.35c.44,0,.64.28.64.82v1.34h-.35v-1.29c0-.4-.12-.57-.4-.57s-.36.12-.58.33v1.53H131Z"></path><path class="cls-3" d="M133.18,393.4a1,1,0,0,1,.91-1.11h0c.54,0,.85.38.85,1v.2h-1.43a.71.71,0,0,0,.69.73h0a.92.92,0,0,0,.53-.16l.13.24a1.29,1.29,0,0,1-.72.21,1,1,0,0,1-1-1A.34.34,0,0,1,133.18,393.4Zm1.47-.17c0-.43-.19-.66-.52-.66a.64.64,0,0,0-.6.66Z"></path><path class="cls-3" d="M136.11,392.34h.36l.31,1.22c.05.2.09.39.12.59h0c.05-.2.1-.39.14-.59l.33-1.22h.36l.33,1.22c0,.2.09.39.14.59h0c0-.2.09-.39.13-.59l.31-1.22H139l-.58,2.11H138l-.3-1.14c-.05-.19-.09-.39-.14-.6h0c-.05.21-.09.41-.15.61l-.3,1.13h-.41Z"></path><path class="cls-3" d="M139.43,391.67a.22.22,0,0,1,.22-.23h0a.23.23,0,0,1,.23.23.23.23,0,0,1-.23.24h0a.23.23,0,0,1-.24-.21Zm0,.67h.36v2.11h-.36Z"></path><path class="cls-3" d="M140.62,393.8v-1.17h-.33v-.27l.33,0,0-.59h.3v.59h.57v.29H141v1.17c0,.27.09.41.33.41a.53.53,0,0,0,.24-.06l.07.27a1.09,1.09,0,0,1-.39.08C140.76,394.5,140.62,394.21,140.62,393.8Z"></path><path class="cls-3" d="M142,391.36h.36v1.28a1,1,0,0,1,.71-.36c.44,0,.64.29.64.82v1.35h-.36v-1.29c0-.4-.12-.57-.4-.57a.77.77,0,0,0-.57.33v1.53H142Z"></path><path class="cls-3" d="M145.1,393.4a1,1,0,0,1,.92-1.11.87.87,0,0,1,.59.24v-1.16H147v3.08h-.3l0-.25h0a.94.94,0,0,1-.64.3C145.45,394.5,145.1,394.09,145.1,393.4Zm1.49.51v-1.1a.7.7,0,0,0-.51-.22c-.36,0-.61.32-.61.81s.21.8.58.8a.67.67,0,0,0,.54-.29Z"></path><path class="cls-3" d="M147.51,393.4a1,1,0,0,1,.92-1.11h0c.54,0,.84.38.84,1v.2h-1.42a.7.7,0,0,0,.69.73h0a.89.89,0,0,0,.52-.16l.13.24a1.28,1.28,0,0,1-.71.21,1,1,0,0,1-1-1A.34.34,0,0,1,147.51,393.4Zm1.48-.17c0-.43-.19-.66-.52-.66a.65.65,0,0,0-.61.66Z"></path><path class="cls-3" d="M150.15,394.23h0l0,.22h-.28v-3.09h.35v1.22a1.08,1.08,0,0,1,.66-.29c.55,0,.84.42.84,1.06s-.43,1.15-.91,1.15A.93.93,0,0,1,150.15,394.23Zm1.15-.87c0-.46-.16-.77-.56-.77a.86.86,0,0,0-.56.28V394a.77.77,0,0,0,.52.22c.34,0,.6-.31.6-.82Z"></path><path class="cls-3" d="M152.17,391.67a.23.23,0,0,1,.23-.24.24.24,0,0,1,.25.23.25.25,0,0,1-.24.25h0a.23.23,0,0,1-.24-.22Zm.06.67h.35v2.11h-.35Z"></path><path class="cls-3" d="M153.35,393.8v-1.17H153v-.27l.33,0,0-.59h.31v.59h.57v.29h-.57v1.17c0,.27.08.41.32.41a.53.53,0,0,0,.24-.06l.07.27a1.09,1.09,0,0,1-.39.08C153.51,394.5,153.35,394.21,153.35,393.8Z"></path><path class="cls-3" d="M155.65,391.37h.27l-1.16,3.79h-.27Z"></path><path class="cls-3" d="M156,393.4a1,1,0,0,1,.93-1.11h.08a.82.82,0,0,1,.62.25l-.18.23a.63.63,0,0,0-.43-.19c-.38,0-.65.33-.65.82s.26.81.65.81a.76.76,0,0,0,.49-.22l.16.24a1,1,0,0,1-.68.27,1,1,0,0,1-1-1A.45.45,0,0,1,156,393.4Z"></path><path class="cls-3" d="M158.17,392.34h.3l0,.38h0a.73.73,0,0,1,.6-.43.45.45,0,0,1,.23,0l-.07.31-.21,0c-.18,0-.39.13-.53.48v1.36h-.36Z"></path><path class="cls-3" d="M159.5,393.4a1,1,0,0,1,.92-1.11h0c.53,0,.84.38.84,1a.67.67,0,0,1,0,.2h-1.42a.71.71,0,0,0,.69.73h0a.92.92,0,0,0,.53-.16l.12.24a1.26,1.26,0,0,1-.71.21,1,1,0,0,1-1-1Zm1.48-.17c0-.43-.19-.66-.53-.66a.66.66,0,0,0-.6.66Z"></path><path class="cls-3" d="M161.64,393.4a1,1,0,0,1,.91-1.11.87.87,0,0,1,.59.24v-1.16h.35v3.08h-.29l0-.25h0a.94.94,0,0,1-.64.3C162,394.5,161.64,394.09,161.64,393.4Zm1.49.51v-1.1a.73.73,0,0,0-.52-.22c-.35,0-.6.32-.6.81s.21.8.58.8a.67.67,0,0,0,.54-.29Z"></path><path class="cls-3" d="M164.15,391.67a.24.24,0,0,1,.48,0,.25.25,0,0,1-.24.25h0a.23.23,0,0,1-.24-.22Zm.06.67h.35v2.11h-.35Z"></path><path class="cls-3" d="M165.34,393.8v-1.17H165v-.27l.33,0,.05-.59h.29v.59h.57v.29h-.57v1.17c0,.27.09.41.33.41a.53.53,0,0,0,.24-.06l.07.27a1.09,1.09,0,0,1-.39.08C165.49,394.5,165.34,394.21,165.34,393.8Z"></path><path class="cls-3" d="M167.46,393.4a1,1,0,0,1,.93-1.11h.08a.82.82,0,0,1,.62.25l-.18.23a.65.65,0,0,0-.42-.19c-.39,0-.66.33-.66.82s.26.81.65.81A.76.76,0,0,0,169,394l.16.24a1,1,0,0,1-.68.27,1,1,0,0,1-1-1A.49.49,0,0,1,167.46,393.4Z"></path><path class="cls-3" d="M169.42,393.9c0-.46.4-.69,1.29-.79,0-.26-.08-.53-.43-.53a1.1,1.1,0,0,0-.63.23l-.14-.25a1.55,1.55,0,0,1,.83-.27c.52,0,.74.35.74.86v1.3h-.3l0-.25h0a1.11,1.11,0,0,1-.71.3.57.57,0,0,1-.62-.53Zm1.29,0v-.58c-.71.09-.94.26-.94.53a.31.31,0,0,0,.29.35h.08a.85.85,0,0,0,.57-.3Z"></path><path class="cls-3" d="M171.74,392.34h.3l0,.38h0a.69.69,0,0,1,.6-.43.43.43,0,0,1,.22,0l-.07.31a.69.69,0,0,0-.2,0c-.18,0-.39.13-.54.48v1.36h-.35Z"></path><path class="cls-3" d="M173.05,393.4a1,1,0,0,1,.92-1.11.87.87,0,0,1,.59.24v-1.16h.35v3.08h-.29l0-.25h0a1,1,0,0,1-.64.3C173.4,394.5,173.05,394.09,173.05,393.4Zm1.49.51v-1.1a.7.7,0,0,0-.51-.22c-.34,0-.61.32-.61.81s.21.8.58.8A.67.67,0,0,0,174.54,393.91Z"></path><polygon class="cls-28" points="193.12 395.24 191.85 395.24 192.64 390.33 193.91 390.33 193.12 395.24"></polygon><path class="cls-28" d="M197.72,390.45a3.2,3.2,0,0,0-1.14-.21c-1.25,0-2.14.67-2.14,1.62,0,.71.64,1.1,1.12,1.34s.66.39.66.61-.4.48-.77.48a2.58,2.58,0,0,1-1.19-.26l-.16-.08-.18,1.1a3.8,3.8,0,0,0,1.42.26c1.33,0,2.2-.66,2.21-1.68,0-.55-.33-1-1.07-1.33-.44-.23-.71-.38-.71-.61s.23-.42.73-.42a2.07,2.07,0,0,1,.95.19l.11.05.18-1.07Z"></path><path class="cls-28" d="M199.4,393.5c.11-.28.51-1.37.51-1.37s.11-.29.17-.47l.08.42s.25,1.17.3,1.42Zm1.57-3.17h-1a.62.62,0,0,0-.66.41l-1.89,4.5h1.33l.27-.74h1.63c0,.17.15.74.15.74H202l-1-4.91Z"></path><path class="cls-28" d="M190.81,390.33l-1.25,3.35-.13-.68a3.79,3.79,0,0,0-1.76-2.06l1.14,4.29h1.34l2-4.9Z"></path><path class="cls-29" d="M188.39,390.33h-2l0,.1a4.25,4.25,0,0,1,3.08,2.57l-.44-2.26a.54.54,0,0,0-.58-.41Z"></path><polyline class="cls-1" points="1 258.75 19.05 240.69 37.11 258.75"></polyline><path class="cls-1" d="M323.17,444.91a219.38,219.38,0,0,1-83.93,16.56c-121.6,0-220.19-98.58-220.19-220.19"></path><path class="cls-1" d="M239.16,29.3c121.61,0,220.2,98.58,220.2,220.19"></path><path class="cls-30" d="M393.64,217.54s10.94,11.51-1.3,18.71c-9,5.33-28.34,15.93-37.83,21.11A7.71,7.71,0,0,1,345,255.6l-22.81-31,3.57-3,24.69,21.29a2.31,2.31,0,0,0,3.1,0L375,223.84"></path><path class="cls-31" d="M374.39,210.67H401a0,0,0,0,1,0,0V228.4a10.37,10.37,0,0,1-10.37,10.37h-5.92a10.37,10.37,0,0,1-10.37-10.37V210.67A0,0,0,0,1,374.39,210.67Z" transform="matrix(-0.72, -0.7, 0.7, -0.72, 508.61, 656.23)"></path><path class="cls-30" d="M381.51,300c-.88-2.41,3.55-4.63,6.47-7.93-1.4.48-2.74.72-3.75-.07-2.44-1.92,10.95-5.92,12.31-5,3.29,2.21.11,6.23-3.13,9.8C389.55,301,382.56,302.85,381.51,300Z"></path><polygon class="cls-32" points="432.8 460.09 427.08 465.55 411.32 451.19 419.2 443.67 432.8 460.09"></polygon><path class="cls-33" d="M361.22,294l-5.43,84.59a20.77,20.77,0,0,0,5.72,16l54.74,66.14,10.43-11s-13.71-27-27.83-42.32c-13.91-15.07-16-24.25-16-24.25s-3.53-5.18,3.41-24.51,11.41-79,11.41-79Z"></path><polygon class="cls-32" points="396.81 478.66 388.91 478.58 387.63 457.3 398.52 457.4 396.81 478.66"></polygon><path class="cls-34" d="M414.86,294a325.68,325.68,0,0,1-3,47.8c-3.51,23.87-8.3,43.77-8.3,43.77l-2.05,85.52H385.8L379.52,385l-6.89-95.5Z"></path><path class="cls-30" d="M375.66,193c-4.81-1.4-7.17-3.33-7.06-7.2l1.71-30.62,34.1,5.43c3,.39,5.16,2.68,4.84,5.13l-11,30.89.11,27.28-13.74,7.4L374.5,220.13l6.87-25.54L375.66,193"></path><path class="cls-35" d="M367,143.16a2.77,2.77,0,0,0-3.84,2.26c-.47,4.27-.18,11,5.07,15.27,5.88,4.84,15.1,2.54,21.45,7.58s8.71,13.12,8.71,13.12l-2.09,17,5.85.42s.43-1.82,3.57-7.92c4.15-8.07,11.07-14.27,9-23.85-.84-3.92-5.14-6.42-5.14-6.42s.28-7.19-7.5-11.34c-4.17-2.22-14.11-1.52-24.66-3.31A47,47,0,0,1,367,143.16Z"></path><circle class="cls-30" cx="398.11" cy="181.03" r="5.93"></circle><path class="cls-35" d="M399.71,487s.58-8.41-3.46-9.65c-6.53-2-8,2.44-10.73,3.47s-9.16-.65-11.86,1.34a5.8,5.8,0,0,0-2,5.45Z"></path><path class="cls-35" d="M440.78,463.42s-6.47-5.39-9.84-2.85c-5.46,4.11-2.71,7.93-3.47,10.74s-5.9,7-5.86,10.4a5.81,5.81,0,0,0,3.22,4.84Z"></path><path class="cls-36" d="M398.79,205.37l-22,9a20.75,20.75,0,0,0-8.29,11.5c-1.69,6.25-7.7,68.4-7.7,68.4s5.58-2.33,22.34-.74c9.74.92,36.22,4.68,36.22,4.68s-10.15-57.44-12.91-74.36S398.79,205.37,398.79,205.37Z"></path><polygon class="cls-31" points="378.2 220.12 400.08 206.17 399.05 203.18 373.25 213.87 378.2 220.12"></polygon><path class="cls-30" d="M311.54,211.78c-2.52,1.14.34,7.16,5,10.23,3.89,2.58,8.21,5.07,9.73,2,1.18-2.36.45-4.16-4.14-6S314.05,210.64,311.54,211.78Z"></path><path class="cls-31" d="M411.17,248.49s-16.63-26-20.17-17.75c-2.21,5.15,10,16.91,10,16.91l11.33,11.45Z"></path><path class="cls-30" d="M391.3,219.13s10.64-11.8,18.76-.15c6,8.61,18.06,27,23.95,36.1a7.71,7.71,0,0,1-1,9.67l-29.15,25.12-3.28-3.33L419.9,260.3a2.33,2.33,0,0,0-.21-3.1l-20.68-20"></path><path class="cls-36" d="M388.52,211.47h24.23a0,0,0,0,1,0,0v18.67a9.42,9.42,0,0,1-9.42,9.42h-5.38a9.42,9.42,0,0,1-9.42-9.42V211.47a0,0,0,0,1,0,0Z" transform="translate(840.64 92.21) rotate(133.77)"></path><path class="cls-30" d="M387.84,299.69c-.93-2.4,3.44-4.71,6.29-8.08-1.4.51-2.73.78-3.76,0-2.48-1.86,10.82-6.16,12.19-5.29,3.35,2.12.26,6.22-2.9,9.87C395.9,300.55,389,302.52,387.84,299.69Z"></path><path class="cls-7" d="M334.53,172.14c-15,7.58-31.12-5-46.13,2.56l1.55,28c15-7.58,31.13,5,46.14-2.56Z"></path><path class="cls-37" d="M320.44,188.53c-.25-4.46-4.11-8.43-8.65-9.21a6.43,6.43,0,0,0-7.74,7c.25,4.46,4.11,8.43,8.64,9.21A6.44,6.44,0,0,0,320.44,188.53Z"></path><path class="cls-37" d="M333.13,179.67c-2.63,1.05-4.91-.85-5.06-3.51a24,24,0,0,0,4.79-1.34Z"></path><path class="cls-37" d="M329.42,200.42c-.15-2.7,1.89-5.14,4.52-6.19l.27,4.85A23.66,23.66,0,0,1,329.42,200.42Z"></path><path class="cls-37" d="M290.8,180.52c2.63-1,4.68-3.44,4.52-6.13a23.93,23.93,0,0,0-4.79,1.28Z"></path><path class="cls-37" d="M296.67,198.65c-.14-2.66-2.44-4.59-5.07-3.57l.27,4.86A23.4,23.4,0,0,1,296.67,198.65Z"></path><path class="cls-38" d="M301.91,186.85c10.94-12.15,30-6.41,40.93-18.55l-11.26-24.85c-10.94,12.15-30,6.4-40.93,18.55Z"></path><path class="cls-7" d="M308.93,167c1.79,3.95,6.68,6.2,11.07,5.31a6.25,6.25,0,0,0,4.56-9.07c-1.79-4-6.69-6.2-11.08-5.32A6.26,6.26,0,0,0,308.93,167Z"></path><path class="cls-7" d="M300.53,179.53c2-1.88,4.76-1,5.83,1.4a23.61,23.61,0,0,0-3.88,2.9Z"></path><path class="cls-7" d="M296.6,159.4c1.09,2.4.09,5.33-1.92,7.21l-1.95-4.3A22.65,22.65,0,0,1,296.6,159.4Z"></path><path class="cls-7" d="M338.62,163.86c-2,1.85-3,4.76-1.95,7.15a22,22,0,0,0,3.9-2.85Z"></path><path class="cls-7" d="M326.92,149.49c1.06,2.36,3.82,3.3,5.85,1.45l-1.95-4.3A23.42,23.42,0,0,1,326.92,149.49Z"></path><circle class="cls-39" cx="114.59" cy="400.19" r="87.71"></circle><circle class="cls-3" cx="114.59" cy="400.19" r="72.27"></circle><path class="cls-40" d="M45.63,409.63A72.28,72.28,0,0,1,184.27,381a72.27,72.27,0,1,0-136,47.8A72.25,72.25,0,0,1,45.63,409.63Z"></path><line class="cls-41" x1="429.79" y1="90.55" x2="430.12" y2="81.29"></line><line class="cls-41" x1="425.33" y1="85.75" x2="434.59" y2="86.08"></line><line class="cls-41" x1="305.91" y1="481.94" x2="299.36" y2="475.38"></line><line class="cls-41" x1="299.36" y1="481.94" x2="305.91" y2="475.38"></line><circle class="cls-41" cx="18.49" cy="117.11" r="2.24"></circle><circle class="cls-41" cx="10.37" cy="126.17" r="2.24"></circle><line class="cls-41" x1="20.95" y1="127.84" x2="7.16" y2="115.49"></line><path class="cls-42" d="M154.68,15.65l-.12,1.19a.71.71,0,0,1-1.41-.14l.11-1.18a6.77,6.77,0,0,1-3.82-1.9,1,1,0,0,1-.29-.79,1,1,0,0,1,1-.86,1,1,0,0,1,.56.25,5.49,5.49,0,0,0,2.68,1.49l.43-4.33c-2-.72-4-1.67-3.78-4.17.2-2,2-3.41,4.53-3.35l.12-1.23a.72.72,0,0,1,.79-.63.71.71,0,0,1,.62.77L156,2a6.34,6.34,0,0,1,3.16,1.56,1,1,0,0,1,.32.82,1,1,0,0,1-1,.86,1,1,0,0,1-.54-.24,4.64,4.64,0,0,0-2.09-1.17l-.39,3.88c2,.76,4.13,1.73,3.87,4.38C159.14,14,157.72,15.71,154.68,15.65Zm-.59-8.44.35-3.58c-1.28,0-2.19.61-2.29,1.64S152.93,6.76,154.09,7.21Zm3.19,4.88c.11-1.14-.82-1.69-2-2.19l-.39,3.95C156.5,13.84,157.2,12.92,157.28,12.09Z"></path><path class="cls-42" d="M467.79,405.83,468,407a.68.68,0,0,1-1.34.2l-.16-1.11a6.51,6.51,0,0,1-4-.88,1,1,0,0,1-.44-.67.9.9,0,0,1,1.34-.93,5.15,5.15,0,0,0,2.83.76l-.6-4.11c-2-.2-4.11-.61-4.46-3-.28-1.94,1.11-3.63,3.42-4.14l-.17-1.17a.67.67,0,0,1,.58-.76.69.69,0,0,1,.76.57l.17,1.18a6.06,6.06,0,0,1,3.28.72.92.92,0,0,1,.48.68.9.9,0,0,1-.75,1,.88.88,0,0,1-.55-.09,4.37,4.37,0,0,0-2.21-.6l.54,3.67c2,.25,4.21.66,4.58,3.17C471.54,403.3,470.63,405.19,467.79,405.83Zm-2.48-7.66-.5-3.39c-1.19.27-1.88,1.06-1.74,2S464.13,398,465.31,398.17Zm4.07,3.78c-.16-1.08-1.14-1.38-2.38-1.56l.55,3.75C469.07,403.74,469.5,402.74,469.38,402Z"></path><line class="cls-43" x1="114.59" y1="400.63" x2="57.43" y2="400.63"></line><circle class="cls-44" cx="114.59" cy="400.63" r="4.16"></circle><polyline class="cls-45" points="114.59 362.42 114.59 400.63 144.05 446.7"></polyline></g></g></svg> 