<svg width="276" height="83" viewBox="0 0 276 83" fill="none" xmlns="http://www.w3.org/2000/svg">
<path d="M247.246 44.0532L260.886 47.4763L259.73 52.0694L238.939 46.8515L239.886 43.0871L257.219 29.1376L244.456 25.9344L245.624 21.294L265.681 26.3277L264.763 29.9737L247.246 44.0532Z" fill="#FB8622"/>
<path d="M216.506 50.7091L227.784 35.7772L233.713 37.9739L213.274 62.8419C210.215 66.4473 206.877 67.5799 203.26 66.2398C202.451 65.9402 201.609 65.4721 200.735 64.8356L202.333 60.5331L203.361 60.9919C204.765 61.5121 205.914 61.6429 206.809 61.3843C207.714 61.1466 208.596 60.5014 209.456 59.4488L211.048 57.6173L211.507 29.7469L217.505 31.969L216.506 50.7091Z" fill="#FB8622"/>
<path d="M166.926 24.9446L167.097 27.7034C168.952 25.5387 171.491 24.4563 174.714 24.4563C178.246 24.4563 180.663 25.8072 181.965 28.5091C183.885 25.8072 186.587 24.4563 190.07 24.4563C192.984 24.4563 195.148 25.262 196.565 26.8733C197.997 28.4846 198.729 30.861 198.762 34.0022V51.3606H192.829V34.1731C192.829 32.4967 192.463 31.2679 191.731 30.4866C190.998 29.7054 189.786 29.3147 188.093 29.3147C186.742 29.3147 185.635 29.6809 184.773 30.4134C183.926 31.1295 183.332 32.0735 182.99 33.2454L183.015 51.3606H177.082V33.9778C177.001 30.8691 175.414 29.3147 172.321 29.3147C169.945 29.3147 168.26 30.2832 167.268 32.22V51.3606H161.335V24.9446H166.926Z" fill="#FB8622"/>
<path d="M126.391 36.8183C126.391 34.2304 126.904 31.903 127.929 29.8359C128.955 27.7526 130.395 26.1575 132.251 25.0508C134.106 23.9277 136.238 23.3662 138.647 23.3662C142.212 23.3662 145.101 24.5136 147.314 26.8086C149.544 29.1035 150.748 32.1471 150.927 35.9394L150.952 37.331C150.952 39.9352 150.447 42.2627 149.438 44.3134C148.445 46.3642 147.013 47.9511 145.141 49.0742C143.286 50.1972 141.137 50.7588 138.696 50.7588C134.969 50.7588 131.982 49.5218 129.736 47.0478C127.506 44.5576 126.391 41.2454 126.391 37.1113V36.8183ZM132.324 37.331C132.324 40.0491 132.885 42.1813 134.008 43.7275C135.132 45.2575 136.694 46.0224 138.696 46.0224C140.698 46.0224 142.252 45.2412 143.359 43.6787C144.482 42.1162 145.044 39.8294 145.044 36.8183C145.044 34.1491 144.466 32.0332 143.31 30.4707C142.171 28.9082 140.617 28.1269 138.647 28.1269C136.71 28.1269 135.172 28.9 134.033 30.4463C132.894 31.9762 132.324 34.2711 132.324 37.331Z" fill="#FB8622"/>
<path d="M111.398 31.7667L112.775 38.0383L117.33 37.0412L118.272 41.3335L113.717 42.3306L116.879 56.7337C117.095 57.7193 117.443 58.393 117.922 58.7546C118.414 59.0968 119.161 59.1583 120.163 58.939C120.83 58.7929 121.489 58.5655 122.137 58.2569L123.122 62.74C121.882 63.3945 120.65 63.8557 119.426 64.1236C114.974 65.0981 112.209 63.1291 111.131 58.2168L107.922 43.5991L103.676 44.5283L102.734 40.2359L106.979 39.3068L105.602 33.0352L111.398 31.7667Z" fill="#FB8622"/>
<path d="M78.3525 43.2852L92.0822 46.3266L91.0549 50.9502L70.1267 46.3142L70.9686 42.5248L87.9042 28.097L75.0565 25.251L76.0943 20.5798L96.2836 25.052L95.4682 28.7223L78.3525 43.2852Z" fill="#FB8622"/>
<path d="M51.9751 60.2158C49.786 61.7815 47.1363 62.1748 44.0261 61.3956C41.2474 60.6995 39.3439 59.3585 38.3157 57.3727C37.3033 55.3908 37.1839 52.8608 37.9573 49.7826L42.128 33.1843L47.8827 34.626L43.7299 51.1533C42.9129 54.4051 43.8542 56.3692 46.554 57.0455C49.3485 57.7456 51.487 57.2159 52.9696 55.4564L57.5924 37.0586L63.3472 38.5003L56.9098 64.1199L51.4865 62.7613L51.9751 60.2158Z" fill="#FB8622"/>
<path d="M30.7373 39.7884C30.3792 43.5807 28.9795 46.5429 26.5381 48.6751C24.0967 50.791 20.8496 51.8489 16.7969 51.8489C13.9648 51.8489 11.4665 51.1816 9.30176 49.847C7.15332 48.496 5.49316 46.5836 4.32129 44.1096C3.14941 41.6357 2.53906 38.763 2.49023 35.4915V32.1712C2.49023 28.8183 3.08431 25.8642 4.27246 23.3089C5.46061 20.7535 7.16146 18.7841 9.375 17.4007C11.6048 16.0172 14.1764 15.3255 17.0898 15.3255C21.0124 15.3255 24.1699 16.3916 26.5625 18.5237C28.9551 20.6559 30.3467 23.6669 30.7373 27.5569H24.585C24.292 25.0016 23.5433 23.1624 22.3389 22.0393C21.1507 20.9 19.401 20.3304 17.0898 20.3304C14.4043 20.3304 12.3372 21.3151 10.8887 23.2845C9.45638 25.2376 8.72396 28.1103 8.69141 31.9026V35.052C8.69141 38.8932 9.375 41.8229 10.7422 43.8411C12.1257 45.8593 14.1439 46.8684 16.7969 46.8684C19.222 46.8684 21.0449 46.3232 22.2656 45.2327C23.4863 44.1422 24.2594 42.3274 24.585 39.7884H30.7373Z" fill="#FB8622"/>
</svg>
